Title                            : Attack the Block
Year                             : 2011
Genre                            : Action | Comedy | Sci-Fi
iMDB URL                         : http://www.imdb.com/title/tt1478964/

Complete name                    : Attack.the.Block.2011.BRRIP.720P.H264-ZEKTORM.mp4
Format                           : MPEG-4
Format profile                   : Base Media
Codec ID                         : isom
File size                        : 1.86 GiB
Duration                         : 1h 27mn
Overall bit rate                 : 3028 Kbps
Subtitles                        : English (Format: srt)

Video
ID                               : 1
Format                           : AVC
Format/Info                      : Advanced Video Codec
Format profile                   : High@L4.0
Format settings, CABAC           : Yes
Format settings, ReFrames        : 12 frames
Codec ID                         : avc1
Codec ID/Info                    : Advanced Video Coding
Duration                         : 1h 27mn
Bit rate mode                    : Variable
Bit rate                         : 2802 Kbps
Width                            : 1280 pixels
Height                           : 528 pixels
Display aspect ratio             : 2.424
Frame rate mode                  : Constant
Frame rate                       : 23.976 fps
Resolution                       : 24 bits
Colorimetry                      : 4:2:0
Scan type                        : Progressive
Bits/(Pixel*Frame)               : 0.173
Stream size                      : 1.72 GiB (93%)
Writing library                  : x264

Audio
ID                               : 2
Format                           : AAC
Format/Info                      : Advanced Audio Codec
Format version                   : Version 4
Format profile                   : LC
Format settings, SBR             : Yes
Format settings, PS              : No
Codec ID                         : 40
Duration                         : 1h 27mn
Bit rate mode                    : Variable
Bit rate                         : 223 Kbps
Maximum bit rate                 : 279 Kbps
Channel(s)                       : 6 channels
Channel positions                : Front: L C R, Rear: L R, LFE
Sampling rate                    : 48.0 KHz
Resolution                       : 16 bits
Stream size                      : 140 MiB (7%)
Language                         : English


Screenshots:

[img]http://img685.imageshack.us/img685/5992/snapatb1.png[/img]

[img]http://img713.imageshack.us/img713/5649/snapatb2.png[/img]

[img]http://img641.imageshack.us/img641/4217/snapatb3.png[/img]

[img]http://img545.imageshack.us/img545/9273/snapatb4.png[/img]
